<?xml version="1.0" encoding="UTF-8" standalone="no"?>
<!-- Created with Inkscape (http://www.inkscape.org/) -->

<svg
   xmlns:dc="http://purl.org/dc/elements/1.1/"
   xmlns:cc="http://creativecommons.org/ns#"
   xmlns:rdf="http://www.w3.org/1999/02/22-rdf-syntax-ns#"
   xmlns:svg="http://www.w3.org/2000/svg"
   xmlns="http://www.w3.org/2000/svg"
   xmlns:sodipodi="http://sodipodi.sourceforge.net/DTD/sodipodi-0.dtd"
   xmlns:inkscape="http://www.inkscape.org/namespaces/inkscape"
   width="320.20377"
   height="362.03024"
   id="svg4692"
   version="1.1"
   inkscape:version="0.48.2 r9819"
   sodipodi:docname="Picnic Basket Season 2 Episode 3.svg">
  <defs
     id="defs4694" />
  <sodipodi:namedview
     id="base"
     pagecolor="#0000ab"
     bordercolor="#000000"
     borderopacity="0.39607843"
     inkscape:pageopacity="0"
     inkscape:pageshadow="0"
     inkscape:zoom="0.98994949"
     inkscape:cx="46.21807"
     inkscape:cy="185.8018"
     inkscape:document-units="px"
     inkscape:current-layer="g2992"
     showgrid="false"
     inkscape:window-width="1366"
     inkscape:window-height="706"
     inkscape:window-x="-8"
     inkscape:window-y="-8"
     inkscape:window-maximized="1"
     fit-margin-top="10"
     fit-margin-left="10"
     fit-margin-right="10"
     fit-margin-bottom="10"
     borderlayer="true" />
  <metadata
     id="metadata4697">
    <rdf:RDF>
      <cc:Work
         rdf:about="">
        <dc:format>image/svg+xml</dc:format>
        <dc:type
           rdf:resource="http://purl.org/dc/dcmitype/StillImage" />
        <dc:title />
      </cc:Work>
    </rdf:RDF>
  </metadata>
  <g
     inkscape:label="Layer 1"
     inkscape:groupmode="layer"
     id="layer1"
     transform="translate(-150.47682,-463.38675)">
    <g
       style="display:inline"
       id="g4661"
       transform="matrix(0.50957569,0,0,0.50957569,-490.05176,1881.9392)"
       inkscape:export-xdpi="359.77469"
       inkscape:export-ydpi="359.77469">
      <path
         sodipodi:nodetypes="ccccccccccscccccccccccccccc"
         inkscape:connector-curvature="0"
         id="path4628"
         d="m 1287.9401,-2376.6137 23.0208,45.1447 32.8869,7.7733 c 24.5265,55.0539 41.2103,103.9062 43.2783,162.3289 l -17.8658,5.9344 3.5877,19.4907 c 115.2209,37.8805 222.8002,52.5688 394.0443,9.2681 l 3.5877,-29.2992 -21.227,-4.7835 c 8.8663,-58.0905 22.4858,-114.9301 52.619,-167.424 0,0 27.2063,-7.1753 27.5053,-7.1753 0.299,0 25.1136,-47.8355 25.1136,-47.8355 l -27.5053,-0.8969 -2.0928,11.062 c -146.6563,39.4096 -292.5402,44.6085 -438.5911,20.629 l -29.0002,-268.4763 c 19.797,-72.6606 89.0291,-110.0105 209.2799,-110.9184 125.3413,8.7218 173.5147,49.6928 192.5376,102.8461 l -10.3792,164.607 20.2948,13.5299 14.3755,-176.1168 c -10.9205,-71.5546 -65.2651,-121.6793 -198.7204,-132.7622 -124.3117,7.0573 -241.6263,21.3144 -257.9137,139.5271 l 34.6704,264.6787 -46.7055,-10.8179 1.8452,-15.3963 z"
         style="fill:#caa043;fill-opacity:1;stroke:#caa043;stroke-width:1;stroke-linecap:butt;stroke-linejoin:miter;stroke-miterlimit:6;stroke-opacity:1;stroke-dasharray:none;display:inline" />
      <path
         inkscape:connector-curvature="0"
         id="path4590"
         d="m 1827.8711,-2392.4546 1.2187,11.9688 c 5.8317,-0.6364 10.926,0.476 16.7188,1.4688 -7.8149,15.4139 -14.7672,27.4453 -21.8125,39.7812 -178.0053,41.2943 -337.0823,43.6788 -510.9375,2.6875 l -18.8437,-37.0625 c 3.8948,-1.2264 12.1404,-2.7202 17.9375,-3.3125 l 3.2812,-10.75 c -14.8489,2.2921 -30.401,4.7538 -38.0937,7.3125 0,0 27.9389,52.7579 28.375,53.5938 0.5549,0.2807 29.5625,6.6562 29.5625,6.6562 27.2724,48.1398 42.8013,94.6085 47,153.9688 -6.6771,1.8632 -20.2188,4.9062 -20.2188,4.9062 0,0 3.3486,21.0767 4.9375,29.3125 126.9496,46.2862 258.6323,52.6346 404.7812,9 0.9374,-13.0091 4.1083,-24.2253 6.1875,-37.25 -7.1029,-1.5746 -14.4477,-4.3421 -22.2187,-6.3437 4.7276,-54.3996 21.4768,-108.6015 51.8125,-156.875 l 25.7187,-7.7813 c 0,0 28.9461,-52.7457 31.6875,-56.5 -4.0179,-1.9922 -33.272,-4.4615 -37.0937,-4.7813 z m -36.625,71.4376 c -23.7359,44.7038 -49.4355,105.8353 -46.625,173.4062 -17.7888,6.5256 -35.5862,11.3556 -53.375,15.0938 l -12.6875,-5.9688 c 10.3524,-7.0226 20.3103,-14.5871 28.6875,-24.375 4.5344,1.4763 9.0593,1.7845 13.5937,2.0938 -4.4847,-3.2886 -7.2973,-4.0645 -11.0625,-5.5313 5.1034,-7.2822 12.3022,-13.3184 13.9063,-21.9687 -10.2088,7.9251 -12.3439,12.961 -18.2188,19.875 -12.2505,-5.8274 -22.7208,-12.6374 -33.3437,-18.9688 5.35,-7.0061 11.3215,-13.9827 13.9062,-21.375 -7.18,4.8784 -12.4203,11.7087 -17.6562,18.5312 -9.5398,-4.7008 -16.6705,-10.2686 -25.6875,-15.25 4.4117,8.5662 12.0307,12.8298 20.1562,19 -7.5873,9.9596 -17.8209,18.0864 -26.3125,25.4063 -11.3609,-7.181 -18.9844,-14.7023 -29,-23.9375 3.2886,12.8116 15.4,19.2815 25.4375,27.2188 -7.4008,6.2381 -15.9225,12.0451 -21.5312,19 9.0627,-2.3472 17.4492,-10.7645 26.1562,-16.3126 l 28.25,16 c -6.8963,6.3132 -15.9181,10.7913 -24.6562,15.5313 -84.1069,9.4243 -166.9232,1.4308 -247.8437,-29.7187 -0.1972,-74.4931 -24.9739,-125.4296 -42.4688,-162.8126 146.4089,27.9699 292.5042,31.4738 440.375,-4.9374 z m -339.0625,33.3437 c 5.5744,8.5662 12.062,12.7985 20.1875,18.9687 -9.0649,9.4672 -15.7377,18.385 -24.1875,25.7188 -10.5153,-8.1323 -23.6425,-18.0462 -36.4063,-23.6875 7.1996,10.8033 16.4209,14.5112 32.9063,28.1563 -5.338,6.561 -6.787,7.1974 -11.1563,15.5 8.4285,-5.8354 9.954,-8.9704 14.75,-13.25 l 26.0313,19.5 c -6.8964,6.313 -14.4603,11.9742 -16.5313,16.5624 13.764,-6.1286 17.1286,-10.6589 21.5625,-14.0312 2.7636,2.6409 16.2523,12.0755 24.2813,13.5312 -7.9914,-7.6404 -13.9479,-11.2455 -20.7188,-16.75 10.1295,-7.1181 16.4469,-13.533 26.375,-22.6562 4.2173,3.6961 16.5741,13.0923 21.5313,13.7188 -3.635,-3.9103 -13.6067,-14.5239 -17.625,-16.75 5.1034,-7.2822 18.4272,-17.2247 20.0312,-25.875 -10.2088,7.9251 -17.3154,15.2835 -23.7187,22.9374 -11.1935,-8.3643 -18.2925,-14.7659 -28.2813,-23 5.35,-7.006 12.066,-10.4873 17.1875,-17.5624 -8.6599,2.2358 -15.8937,6.954 -20.8125,14.0937 -9.2227,-6.2863 -16.3892,-10.1436 -25.4062,-15.125 z m 25.625,21.9375 c 8.0999,6.7908 18.0243,15.8128 27.9375,22.9688 -10.1639,7.7294 -17.206,13.402 -27.3125,22.875 l -27.75,-19.9688 c 10.2325,-8.5341 17.7863,-17.3994 27.125,-25.875 z m 190.2812,82.5625 c 10.0624,8.43 21.911,13.4226 33.625,18.0937 -9.3226,7.9093 -18.229,15.762 -30.5,23.5938 l -30.0312,-16.125 c 10.2861,-8.5207 19.5416,-16.5934 26.9062,-25.5625 z m -286.7187,27.9375 -0.1562,4.0312 c 131.5618,52.41 276.5436,44.1519 374.5312,5.9063 l -0.062,-9.0313 9.25,1.7813 -1.9375,21.375 c -123.5235,39.182 -252.0404,39.7704 -386.875,-7.9063 -0.7739,-4.8333 -1.5697,-9.9791 -1.9375,-14.8124 0,0 7.038,-1.3438 7.1875,-1.3438 z m 293,19.4375 c 3.292,1.5839 6.6419,3.2919 11.8125,4.5 -8.7111,2.4773 -19.6181,4.3173 -28.7188,4.9375 9.2109,-4.0743 12.4724,-6.0652 16.9063,-9.4375 z"
         style="fill:#8d6e22;fill-opacity:1;stroke:#8d6e22;stroke-width:1;stroke-linecap:butt;stroke-linejoin:miter;stroke-miterlimit:4;stroke-opacity:1;stroke-dasharray:none;display:inline" />
      <path
         sodipodi:nodetypes="csccscc"
         inkscape:connector-curvature="0"
         id="path4630"
         d="m 1828.7565,-2375.7767 c 0.9295,-23.7495 -10.8305,-46.4437 -44.6064,-67.1179 -32.887,-20.1302 -62.2231,-41.1864 -103.0626,-60.9314 -57.8205,-27.9436 -112.9794,-24.7397 -167.723,-5.232 -42.5373,15.0954 -80.4203,31.6733 -125.269,51.4231 -35.1389,15.4739 -78.541,46.7608 -76.0882,88.5702 179.2278,48.1408 400.3766,35.823 516.7492,-6.712 z"
         style="fill:#fdfdfc;fill-opacity:1;stroke:#fdfdfc;stroke-width:1;stroke-linecap:butt;stroke-linejoin:miter;stroke-miterlimit:6;stroke-opacity:1;stroke-dasharray:none;display:inline" />
      <path
         style="fill:#dd6260;fill-opacity:1;stroke:#dd6260;stroke-width:1;stroke-linecap:butt;stroke-linejoin:miter;stroke-miterlimit:6;stroke-opacity:1;stroke-dasharray:none"
         d="m 1696.6994,-2438.4459 c -40.7198,-10.906 -83.2008,-17.3873 -124.1249,-19.3106 -26.9151,20.7825 -45.1801,45.89 -61.0172,72.2115 53.6345,2.1354 106.2264,8.8956 157.0295,22.1705 6.0978,-26.214 13.3572,-52.0056 28.1126,-75.0714 z m -259.8834,-8.1921 c -37.7062,6.9008 -72.1511,15.6227 -100.0018,22.5015 -20.2705,18.8486 -23.562,33.6524 -25.2916,48.1827 24.759,-2.8462 50.1254,-5.4345 74.7628,-7.1704 9.7656,-22.8802 26.4103,-43.8145 50.5306,-63.5138 z m 361.9918,79.9195 c 12.399,-2.836 23.6771,-5.6037 30.1278,-7.6316 -0.1213,-3.065 -0.069,-3.9594 -0.1366,-6.741 -9.2399,-6.1298 -19.5538,-12.2759 -29.6653,-17.6875 1.0872,12.4805 0.057,21.7853 -0.3259,32.0601 z"
         id="path4638"
         inkscape:connector-curvature="0"
         sodipodi:nodetypes="ccccccccccccccc" />
      <path
         sodipodi:nodetypes="ccccccccc"
         inkscape:connector-curvature="0"
         id="path4636"
         d="m 1668.94,-2363.2821 c 13.8541,3.6289 27.5751,7.7428 41.1477,12.38 -14.0666,2.8781 -29.106,5.1406 -44.8141,6.8651 0.6392,-5.9592 1.105,-10.7226 3.6664,-19.2451 z m -283.2708,-19.7985 c 42.3599,-3.0028 84.4414,-4.115 125.9,-2.4639 -9.2584,14.0784 -14.6198,28.7135 -20.0314,43.3415 -42.7573,-2.7199 -83.0295,-7.2143 -115.7159,-12.1826 1.5996,-9.565 2.7883,-19.13 9.8473,-28.695 z"
         style="fill:#dd6260;fill-opacity:1;stroke:#dd6260;stroke-width:1;stroke-linecap:butt;stroke-linejoin:miter;stroke-miterlimit:6;stroke-opacity:1;stroke-dasharray:none" />
      <path
         style="fill:#dd6260;fill-opacity:1;stroke:#dd6260;stroke-width:1;stroke-linecap:butt;stroke-linejoin:miter;stroke-miterlimit:12;stroke-opacity:1;stroke-dasharray:none"
         d="m 1634.1638,-2497.018 c 42.7223,2.1475 56.4619,3.374 73.9806,7.2437 -23.0013,-12.7588 -30.8715,-16.7606 -46.9347,-22.5988 -11.3359,6.6691 -18.2103,10.1961 -27.0459,15.3551 z m -52.8115,-26.9195 c -38.0892,0.8364 -85.4896,19.6062 -149.7036,47.2122 29.451,-6.9158 56.37,-12.32 83.5261,-15.6042 21.5508,-11.8649 44.0703,-21.835 66.1775,-31.608 z"
         id="path4642"
         inkscape:connector-curvature="0"
         sodipodi:nodetypes="cccccccc" />
      <path
         inkscape:connector-curvature="0"
         id="path4659"
         d="m 1385.1237,-2353.3678 -20.7177,-2.9597 -10.993,-88.79 21.1404,-9.7246 z"
         style="fill:#caa043;fill-opacity:1;fill-rule:nonzero;stroke:#caa043;stroke-width:1;stroke-linecap:butt;stroke-linejoin:miter;stroke-miterlimit:12;stroke-opacity:1;stroke-dasharray:none" />
      <path
         sodipodi:nodetypes="cscszscccccccccccccsccccscc"
         inkscape:connector-curvature="0"
         id="path4626"
         d="m 1391.4043,-2352.5338 c 91.382,13.4236 202.0799,15.9752 303.049,3.887 49.6402,-5.943 97.0373,-14.3883 138.8484,-28.2927 -3.9582,5.6923 -18.6005,11.0686 -41.7594,16.9837 -40.6321,10.3781 -160.0546,23.3948 -209.4143,23.8478 -49.3597,0.453 -116.7974,-2.2993 -172.8249,-9.2563 -55.7329,-6.9204 -100.1753,-18.0266 -104.3018,-24.8102 16.1032,4.3959 33.5231,8.3511 52.0127,11.7806 l -34.1158,-259.6526 c -8.9845,-94.934 125.9101,-154.0633 268.3088,-144.6371 110.9905,4.0837 198.0111,66.6878 197.674,139.5058 l -12.4472,175.5235 -11.8387,-8.0334 14.3755,-165.6449 c 1.2419,-66.9948 -84.552,-128.2963 -190.0528,-132.6109 -159.8011,-8.0098 -266.3759,65.3496 -255.3769,136.7426 l 34.687,260.8806 c 4.2717,0.7442 8.5938,1.4634 12.9631,2.1573 l -30.6164,-265.066 c 8.4973,-69.9298 92.5322,-116.7997 219.5282,-117.627 65.9299,-0.4295 195.6573,35.8153 194.2482,115.3847 l -8.8196,160.2487 -11.9589,-7.4743 10.464,-146.496 c 1.0472,-50.6596 -59.1217,-103.1659 -183.2695,-110.3204 -80.7417,-4.6531 -215.545,28.4928 -208.084,118.6916 z"
         style="fill:#8d6e22;fill-opacity:1;stroke:#8d6e22;stroke-width:1;stroke-linecap:butt;stroke-linejoin:miter;stroke-miterlimit:6;stroke-opacity:1;stroke-dasharray:none;display:inline" />
      <path
         sodipodi:nodetypes="cccccccccc"
         inkscape:connector-curvature="0"
         id="path4640"
         d="m 1799.0176,-2399.0339 c -30.972,-16.8048 -65.5445,-29.9684 -101.6147,-39.5846 9.586,-13.7372 18.2398,-27.5097 27.0355,-42.0373 26.0201,16.5409 51.2801,29.5418 71.2737,45.2932 1.3623,12.1096 2.7216,24.2191 3.3055,36.3287 z m -226.4431,-58.7226 c 18.2785,-13.955 38.7577,-30.1458 60.7661,-39.3023 -40.2921,-3.0295 -79.6398,-0.8646 -118.3386,4.8688 -26.6419,14.1649 -52.6775,28.9361 -77.0715,45.3488 43.9844,-8.8614 89.7627,-13.4992 134.644,-10.9153 z"
         style="fill:#dd6260;fill-opacity:1;stroke:#dd6260;stroke-width:1;stroke-linecap:butt;stroke-linejoin:miter;stroke-miterlimit:6;stroke-opacity:1;stroke-dasharray:none" />
    </g>
    <g
       inkscape:export-ydpi="359.77469"
       inkscape:export-xdpi="359.77469"
       transform="matrix(0.50957569,0,0,0.50957569,-489.98062,1881.0009)"
       id="g2992"
       style="display:inline">
      <path
         style="fill:#caa043;fill-opacity:1;stroke:#caa043;stroke-width:1;stroke-linecap:butt;stroke-linejoin:miter;stroke-miterlimit:6;stroke-opacity:1;stroke-dasharray:none;display:inline"
         d="m 1287.8005,-2374.7723 23.0208,45.1447 32.8869,7.7733 c 24.5265,55.0539 41.2103,103.9062 43.2783,162.3289 l -17.8658,5.9344 3.5877,19.4907 c 115.2209,37.8805 222.8002,52.5688 394.0443,9.2681 l 3.5877,-29.2992 -21.227,-4.7835 c 8.8663,-58.0905 22.4858,-114.9301 52.619,-167.424 0,0 27.2063,-7.1753 27.5053,-7.1753 0.299,0 25.1136,-47.8355 25.1136,-47.8355 l -27.5053,-0.8969 -2.0928,11.062 c -146.6563,39.4096 -292.5402,44.6085 -438.5911,20.629 l -29.0002,-268.4763 c 19.797,-72.6606 89.0291,-110.0105 209.2799,-110.9184 125.3413,8.7218 173.5147,49.6928 192.5376,102.8461 l -10.3792,164.607 20.2948,13.5299 14.3755,-176.1168 c -10.9205,-71.5546 -65.2651,-121.6793 -198.7204,-132.7622 -124.3117,7.0573 -241.6263,21.3144 -257.9137,139.5271 l 34.6704,264.6787 -46.7055,-10.8179 1.8452,-15.3963 z"
         id="path2994"
         inkscape:connector-curvature="0"
         sodipodi:nodetypes="ccccccccccscccccccccccccccc" />
      <path
         style="fill:#8d6e22;fill-opacity:1;stroke:#8d6e22;stroke-width:1;stroke-linecap:butt;stroke-linejoin:miter;stroke-miterlimit:4;stroke-opacity:1;stroke-dasharray:none;display:inline"
         d="m 1827.7315,-2390.6132 1.2187,11.9688 c 5.8317,-0.6364 10.926,0.476 16.7188,1.4688 -7.8149,15.4139 -14.7672,27.4453 -21.8125,39.7812 -178.0053,41.2943 -337.0823,43.6788 -510.9375,2.6875 l -18.8437,-37.0625 c 3.8948,-1.2264 12.1404,-2.7202 17.9375,-3.3125 l 3.2812,-10.75 c -14.8489,2.2921 -30.401,4.7538 -38.0937,7.3125 0,0 27.9389,52.7579 28.375,53.5938 0.5549,0.2807 29.5625,6.6562 29.5625,6.6562 27.2724,48.1398 42.8013,94.6085 47,153.9688 -6.6771,1.8632 -20.2188,4.9062 -20.2188,4.9062 0,0 3.3486,21.0767 4.9375,29.3125 126.9496,46.2862 258.6323,52.6346 404.7812,9 0.9374,-13.0091 4.1083,-24.2253 6.1875,-37.25 -7.1029,-1.5746 -14.4477,-4.3421 -22.2187,-6.3437 4.7276,-54.3996 21.4768,-108.6015 51.8125,-156.875 l 25.7187,-7.7813 c 0,0 28.9461,-52.7457 31.6875,-56.5 -4.0179,-1.9922 -33.272,-4.4615 -37.0937,-4.7813 z m -36.625,71.4376 c -23.7359,44.7038 -49.4355,105.8353 -46.625,173.4062 -17.7888,6.5256 -35.5862,11.3556 -53.375,15.0938 l -12.6875,-5.9688 c 10.3524,-7.0226 20.3103,-14.5871 28.6875,-24.375 4.5344,1.4763 9.0593,1.7845 13.5937,2.0938 -4.4847,-3.2886 -7.2973,-4.0645 -11.0625,-5.5313 5.1034,-7.2822 12.3022,-13.3184 13.9063,-21.9687 -10.2088,7.9251 -12.3439,12.961 -18.2188,19.875 -12.2505,-5.8274 -22.7208,-12.6374 -33.3437,-18.9688 5.35,-7.0061 11.3215,-13.9827 13.9062,-21.375 -7.18,4.8784 -12.4203,11.7087 -17.6562,18.5312 -9.5398,-4.7008 -16.6705,-10.2686 -25.6875,-15.25 4.4117,8.5662 12.0307,12.8298 20.1562,19 -7.5873,9.9596 -17.8209,18.0864 -26.3125,25.4063 -11.3609,-7.181 -18.9844,-14.7023 -29,-23.9375 3.2886,12.8116 15.4,19.2815 25.4375,27.2188 -7.4008,6.2381 -15.9225,12.0451 -21.5312,19 9.0627,-2.3472 17.4492,-10.7645 26.1562,-16.3126 l 28.25,16 c -6.8963,6.3132 -15.9181,10.7913 -24.6562,15.5313 -84.1069,9.4243 -166.9232,1.4308 -247.8437,-29.7187 -0.1972,-74.4931 -24.9739,-125.4296 -42.4688,-162.8126 146.4089,27.9699 292.5042,31.4738 440.375,-4.9374 z m -339.0625,33.3437 c 5.5744,8.5662 12.062,12.7985 20.1875,18.9687 -9.0649,9.4672 -15.7377,18.385 -24.1875,25.7188 -10.5153,-8.1323 -23.6425,-18.0462 -36.4063,-23.6875 7.1996,10.8033 16.4209,14.5112 32.9063,28.1563 -5.338,6.561 -6.787,7.1974 -11.1563,15.5 8.4285,-5.8354 9.954,-8.9704 14.75,-13.25 l 26.0313,19.5 c -6.8964,6.313 -14.4603,11.9742 -16.5313,16.5624 13.764,-6.1286 17.1286,-10.6589 21.5625,-14.0312 2.7636,2.6409 16.2523,12.0755 24.2813,13.5312 -7.9914,-7.6404 -13.9479,-11.2455 -20.7188,-16.75 10.1295,-7.1181 16.4469,-13.533 26.375,-22.6562 4.2173,3.6961 16.5741,13.0923 21.5313,13.7188 -3.635,-3.9103 -13.6067,-14.5239 -17.625,-16.75 5.1034,-7.2822 18.4272,-17.2247 20.0312,-25.875 -10.2088,7.9251 -17.3154,15.2835 -23.7187,22.9374 -11.1935,-8.3643 -18.2925,-14.7659 -28.2813,-23 5.35,-7.006 12.066,-10.4873 17.1875,-17.5624 -8.6599,2.2358 -15.8937,6.954 -20.8125,14.0937 -9.2227,-6.2863 -16.3892,-10.1436 -25.4062,-15.125 z m 25.625,21.9375 c 8.0999,6.7908 18.0243,15.8128 27.9375,22.9688 -10.1639,7.7294 -17.206,13.402 -27.3125,22.875 l -27.75,-19.9688 c 10.2325,-8.5341 17.7863,-17.3994 27.125,-25.875 z m 190.2812,82.5625 c 10.0624,8.43 21.911,13.4226 33.625,18.0937 -9.3226,7.9093 -18.229,15.762 -30.5,23.5938 l -30.0312,-16.125 c 10.2861,-8.5207 19.5416,-16.5934 26.9062,-25.5625 z m -286.7187,27.9375 -0.1562,4.0312 c 131.5618,52.41 276.5436,44.1519 374.5312,5.9063 l -0.062,-9.0313 9.25,1.7813 -1.9375,21.375 c -123.5235,39.182 -252.0404,39.7704 -386.875,-7.9063 -0.7739,-4.8333 -1.5697,-9.9791 -1.9375,-14.8124 0,0 7.038,-1.3438 7.1875,-1.3438 z m 293,19.4375 c 3.292,1.5839 6.6419,3.2919 11.8125,4.5 -8.7111,2.4773 -19.6181,4.3173 -28.7188,4.9375 9.2109,-4.0743 12.4724,-6.0652 16.9063,-9.4375 z"
         id="path2996"
         inkscape:connector-curvature="0" />
      <path
         style="fill:#fdfdfc;fill-opacity:1;stroke:#fdfdfc;stroke-width:1;stroke-linecap:butt;stroke-linejoin:miter;stroke-miterlimit:6;stroke-opacity:1;stroke-dasharray:none;display:inline"
         d="m 1828.6169,-2373.9353 c 0.9295,-23.7495 -10.8305,-46.4437 -44.6064,-67.1179 -32.887,-20.1302 -62.2231,-41.1864 -103.0626,-60.9314 -57.8205,-27.9436 -112.9794,-24.7397 -167.723,-5.232 -42.5373,15.0954 -80.4203,31.6733 -125.269,51.4231 -35.1389,15.4739 -78.541,46.7608 -76.0882,88.5702 179.2278,48.1408 400.3766,35.823 516.7492,-6.712 z"
         id="path2998"
         inkscape:connector-curvature="0"
         sodipodi:nodetypes="csccscc" />
      <path
         sodipodi:nodetypes="ccccccccccccccc"
         inkscape:connector-curvature="0"
         id="path3000"
         d="m 1696.5598,-2436.6045 c -40.7198,-10.906 -83.2008,-17.3873 -124.1249,-19.3106 -26.9151,20.7825 -45.1801,45.89 -61.0172,72.2115 53.6345,2.1354 106.2264,8.8956 157.0295,22.1705 6.0978,-26.214 13.3572,-52.0056 28.1126,-75.0714 z m -259.8834,-8.1921 c -37.7062,6.9008 -72.1511,15.6227 -100.0018,22.5015 -20.2705,18.8486 -23.562,33.6524 -25.2916,48.1827 24.759,-2.8462 50.1254,-5.4345 74.7628,-7.1704 9.7656,-22.8802 26.4103,-43.8145 50.5306,-63.5138 z m 361.9918,79.9195 c 12.399,-2.836 23.6771,-5.6037 30.1278,-7.6316 -0.1213,-3.065 -0.069,-3.9594 -0.1366,-6.741 -9.2399,-6.1298 -19.5538,-12.2759 -29.6653,-17.6875 1.0872,12.4805 0.057,21.7853 -0.3259,32.0601 z"
         style="fill:#dd6260;fill-opacity:1;stroke:#dd6260;stroke-width:1;stroke-linecap:butt;stroke-linejoin:miter;stroke-miterlimit:6;stroke-opacity:1;stroke-dasharray:none" />
      <path
         style="fill:#dd6260;fill-opacity:1;stroke:#dd6260;stroke-width:1;stroke-linecap:butt;stroke-linejoin:miter;stroke-miterlimit:6;stroke-opacity:1;stroke-dasharray:none"
         d="m 1668.8004,-2361.4407 c 13.8541,3.6289 27.5751,7.7428 41.1477,12.38 -14.0666,2.8781 -29.106,5.1406 -44.8141,6.8651 0.6392,-5.9592 1.105,-10.7226 3.6664,-19.2451 z m -283.2708,-19.7985 c 42.3599,-3.0028 84.4414,-4.115 125.9,-2.4639 -9.2584,14.0784 -14.6198,28.7135 -20.0314,43.3415 -42.7573,-2.7199 -83.0295,-7.2143 -115.7159,-12.1826 1.5996,-9.565 2.7883,-19.13 9.8473,-28.695 z"
         id="path3002"
         inkscape:connector-curvature="0"
         sodipodi:nodetypes="ccccccccc" />
      <path
         sodipodi:nodetypes="cccccccc"
         inkscape:connector-curvature="0"
         id="path3004"
         d="m 1634.0242,-2495.1766 c 42.7223,2.1475 56.4619,3.374 73.9806,7.2437 -23.0013,-12.7588 -30.8715,-16.7606 -46.9347,-22.5988 -11.3359,6.6691 -18.2103,10.1961 -27.0459,15.3551 z m -52.8115,-26.9195 c -38.0892,0.8364 -85.4896,19.6062 -149.7036,47.2122 29.451,-6.9158 56.37,-12.32 83.5261,-15.6042 21.5508,-11.8649 44.0703,-21.835 66.1775,-31.608 z"
         style="fill:#dd6260;fill-opacity:1;stroke:#dd6260;stroke-width:1;stroke-linecap:butt;stroke-linejoin:miter;stroke-miterlimit:12;stroke-opacity:1;stroke-dasharray:none" />
      <path
         style="fill:#caa043;fill-opacity:1;fill-rule:nonzero;stroke:#caa043;stroke-width:1;stroke-linecap:butt;stroke-linejoin:miter;stroke-miterlimit:12;stroke-opacity:1;stroke-dasharray:none"
         d="m 1384.9841,-2351.5264 -20.7177,-2.9597 -10.993,-88.79 21.1404,-9.7246 z"
         id="path3006"
         inkscape:connector-curvature="0" />
      <path
         style="fill:#8d6e22;fill-opacity:1;stroke:#8d6e22;stroke-width:1;stroke-linecap:butt;stroke-linejoin:miter;stroke-miterlimit:6;stroke-opacity:1;stroke-dasharray:none;display:inline"
         d="m 1391.2647,-2350.6924 c 91.382,13.4236 202.0799,15.9752 303.049,3.887 49.6402,-5.943 97.0373,-14.3883 138.8484,-28.2927 -3.9582,5.6923 -18.6005,11.0686 -41.7594,16.9837 -40.6321,10.3781 -160.0546,23.3948 -209.4143,23.8478 -49.3597,0.453 -116.7974,-2.2993 -172.8249,-9.2563 -55.7329,-6.9204 -100.1753,-18.0266 -104.3018,-24.8102 16.1032,4.3959 33.5231,8.3511 52.0127,11.7806 l -34.1158,-259.6526 c -8.9845,-94.934 125.9101,-154.0633 268.3088,-144.6371 110.9905,4.0837 198.0111,66.6878 197.674,139.5058 l -12.4472,175.5235 -11.8387,-8.0334 14.3755,-165.6449 c 1.2419,-66.9948 -84.552,-128.2963 -190.0528,-132.6109 -159.8011,-8.0098 -266.3759,65.3496 -255.3769,136.7426 l 34.687,260.8806 c 4.2717,0.7442 8.5938,1.4634 12.9631,2.1573 l -30.6164,-265.066 c 8.4973,-69.9298 92.5322,-116.7997 219.5282,-117.627 65.9299,-0.4295 195.6573,35.8153 194.2482,115.3847 l -8.8196,160.2487 -11.9589,-7.4743 10.464,-146.496 c 1.0472,-50.6596 -59.1217,-103.1659 -183.2695,-110.3204 -80.7417,-4.6531 -215.545,28.4928 -208.084,118.6916 z"
         id="path3008"
         inkscape:connector-curvature="0"
         sodipodi:nodetypes="cscszscccccccccccccsccccscc" />
      <path
         style="fill:#dd6260;fill-opacity:1;stroke:#dd6260;stroke-width:1;stroke-linecap:butt;stroke-linejoin:miter;stroke-miterlimit:6;stroke-opacity:1;stroke-dasharray:none"
         d="m 1798.878,-2397.1925 c -30.972,-16.8048 -65.5445,-29.9684 -101.6147,-39.5846 9.586,-13.7372 18.2398,-27.5097 27.0355,-42.0373 26.0201,16.5409 51.2801,29.5418 71.2737,45.2932 1.3623,12.1096 2.7216,24.2191 3.3055,36.3287 z m -226.4431,-58.7226 c 18.2785,-13.955 38.7577,-30.1458 60.7661,-39.3023 -40.2921,-3.0295 -79.6398,-0.8646 -118.3386,4.8688 -26.6419,14.1649 -52.6775,28.9361 -77.0715,45.3488 43.9844,-8.8614 89.7627,-13.4992 134.644,-10.9153 z"
         id="path3010"
         inkscape:connector-curvature="0"
         sodipodi:nodetypes="cccccccccc" />
    </g>
  </g>
</svg>
